<?xml version="1.0" encoding="UTF-8"?>
<!DOCTYPE svg PUBLIC "-//W3C//DTD SVG 1.1//EN" "http://www.w3.org/Graphics/SVG/1.1/DTD/svg11.dtd">
<!-- Creator: CorelDRAW X7 -->
<svg xmlns="http://www.w3.org/2000/svg" xml:space="preserve" width="89.3939mm" height="25.5364mm" version="1.1" style="shape-rendering:geometricPrecision; text-rendering:geometricPrecision; image-rendering:optimizeQuality; fill-rule:evenodd; clip-rule:evenodd"
viewBox="0 0 974 278"
 xmlns:xlink="http://www.w3.org/1999/xlink">
 <defs>
 <!-- 0 0 971 243 -->
  <style type="text/css">
   <![CDATA[
    .strok-1 {stroke:black;stroke-width:1}
    .stroke-2 {stroke:black;stroke-width:2}
    .fill-none {fill:none}
    .fill-black {fill:black}
    .fill-white {fill:white}
    .fill-grey {fill:#B3B3B3}
    .fill-silver-1 {fill:url(#right-eye-gradient)}
    .fill-silver-2 {fill:url(#left-eye-gradient)}
   ]]>
  </style>
    <clipPath id="id1">
    <path d="M87 95c0,-5 45,129 45,129 88,1 168,6 239,18l7 -26c-100,-43 -199,-113 -291,-121z"/>
    </clipPath>
    <clipPath id="id2">
      <path d="M885 95c-1,-5 -46,129 -46,129 -87,1 -168,6 -238,18l-8 -26c101,-43 200,-113 292,-121z"/>
    </clipPath>
    <clipPath id="id3">
      <path d="M80 100c1,-5 48,141 48,141 88,1 174,25 244,36l8 -26c-97,-53 -209,-143 -300,-151z"/>
    </clipPath>
    <clipPath id="id4">
      <path d="M894 96c-1,-4 -48,142 -48,142 -88,0 -174,24 -244,36l-8 -26c97,-54 208,-143 300,-152z"/>
    </clipPath>
  <linearGradient id="right-eye-gradient" gradientUnits="userSpaceOnUse" x1="760.109" y1="104.856" x2="678.027" y2="217.029">
   <stop offset="0" style="stop-opacity:1; stop-color:#999999"/>
   <stop offset="1" style="stop-opacity:1; stop-color:#E6E6E6"/>
  </linearGradient>
  <linearGradient id="left-eye-gradient" gradientUnits="userSpaceOnUse" xlink:href="#right-eye-gradient" x1="211.326" y1="104.856" x2="293.406" y2="217.029">
  </linearGradient>
 </defs>
 <g id="eyes">
  
  <g id="left-eye">
    <path class="eye-brow stroke-2 fill-black " d="M438 189l-1 38c-118,3 -259,-169 -435,-126l48 -100c177,26 329,215 388,188z"/>
    
    <!-- <path class="fill-grey stroke-2" d="M440 224l-2 38c-117,3 -260,-201 -436,-158l47 -100c177,27 332,247 391,220z"/> -->
    
    <!-- first-stage-start -->

    <g id="left-eye-closed">
      <path id="left-eye-lash" class="eye-lash fill-black stroke-2" d="M69 149c1,-4 120,71 120,71 88,1 98,-15 169,-4 -76,-22 -117,-4 -164,-14 -45,-10 -74,-48 -125,-53z"/>
    </g>

    <!-- first-stage-end -->

    <!--=============================================================================== -->

    <!-- second-stage-start -->
    
    <g id="left-eye-open">

      <!-- <path class="stroke-2 fill-white" d="M87 95c0,-5 45,129 45,129 88,1 168,6 239,18l7 -26c-100,-43 -199,-113 -291,-121z"/> -->
         <!-- <path class="fill-none stroke-2" d="M80 100c1,-5 48,141 48,141 88,1 174,25 244,36l8 -26c-97,-53 -209,-143 -300,-151z"/> -->
      
      <g style="clip-path:url(#id3)">
        <g id="left-eye-ball">
          <!-- <path id="1" class="fill-silver-2 stroke-2" d="M271 98c41,12 66,50 56,85 -10,34 -52,53 -93,41 -41,-12 -66,-50 -56,-85 10,-35 52,-53 93,-41z"/>
          <ellipse class="fill-black stroke-2" transform="matrix(0.368058 0.106855 -0.0890381 0.30669 252.366 160.942)" rx="59" ry="60"/> -->
          
          <!-- third stage -->
          
          <!-- <g id="left-eye-ball-shine">
            <path class="fill-white" d="M301 148c-5,-7 -26,-17 -47,-17 2,-6 3,-5 -5,-5 -22,0 -36,11 -41,29 -2,9 -1,7 7,5 -5,13 -5,54 -29,10 -20,-66 75,-86 117,-40 10,11 18,53 -2,18z"/>
            <path class="fill-white" d="M257 200c14,-2 28,-10 41,-22 5,-5 5,-1 7,6 8,28 -28,42 -51,23 -9,-7 -5,-5 3,-7z"/>
          </g> -->

          <!-- third-stage-end -->


          <!-- <g id="left-eye-final">
            <path id="1" class="fill-silver-1 stroke-2" d="M273 133c41,12 66,50 56,85 -10,35 -52,53 -93,41 -41,-12 -66,-49 -56,-84 10,-35 52,-54 93,-42z"/>
            <ellipse class="fill-black stroke-2" transform="matrix(0.368058 0.106855 -0.0890381 0.30669 254.32 196.352)" rx="59" ry="60"/>
            <g>
            <path class="fill-white" d="M304 184c-5,-7 -26,-17 -47,-17 2,-6 4,-5 -4,-5 -23,0 -37,11 -41,29 -2,9 -2,7 6,5 -5,13 -5,54 -28,10 -21,-66 74,-86 116,-40 10,11 19,53 -2,18z"/>
            <path class="fill-white" d="M260 236c15,-2 28,-10 41,-22 5,-5 5,-1 7,6 9,28 -28,42 -51,23 -8,-7 -5,-5 3,-7z"/>
            </g>
          </g> -->


        </g>
      </g>
    </g>

    <!-- second-stage-end -->

  </g>

  <g id="right-eye">
   <path class="eye-brow stroke-2 fill-black " d="M533 189l2 38c117,3 258,-169 435,-126l-48 -100c-178,26 -330,215 -389,188z"/>
   <!-- <path class="fill-grey stroke-2" d="M534 220l2 39c117,3 260,-201 436,-159l-48 -99c-177,26 -331,247 -390,219z"/> -->
   
   <!-- first-stage-start -->

   <g id="right-eye-closed">
    <path id="right-eye-lash" class="eye-lash fill-black stroke-2" d="M917 149c-1,-4 -119,71 -119,71 -89,1 -99,-15 -169,-4 76,-22 117,-4 163,-14 45,-10 74,-48 125,-53z"/>
   </g>

   <!-- first-stage-end -->
   
   <!--=============================================================================== -->

   <!-- second-stage-start -->

   <g id="right-eye-open">
    <!-- <path class="fill-white stroke-2" d="M885 95c-1,-5 -46,129 -46,129 -87,1 -168,6 -238,18l-8 -26c101,-43 200,-113 292,-121z"/> -->
       <!-- <path class="fill-white stroke-2" d="M894 96c-1,-4 -48,142 -48,142 -88,0 -174,24 -244,36l-8 -26c97,-54 208,-143 300,-152z"/> -->
    <!-- <g style="clip-path:url(#id4)">
      <g id="right-eye-final">
        <g>
          <path id="1" class="fill-silver-2 stroke-2" d="M701 130c-41,12 -66,50 -56,85 10,34 52,53 93,41 41,-12 66,-50 56,-85 -10,-34 -52,-53 -93,-41z"/>
          <ellipse class="fill-black stroke-2" transform="matrix(-0.368058 0.106855 0.0890381 0.30669 719.488 193.015)" rx="59" ry="60"/>
          <g>
          <path class="fill-white" d="M670 181c4,-8 26,-18 47,-17 -3,-6 -4,-6 4,-6 22,1 37,12 41,30 2,8 2,7 -6,5 5,13 5,54 28,10 20,-66 -74,-87 -116,-41 -10,11 -19,54 2,19z"/>
          <path class="fill-white" d="M714 233c-15,-3 -29,-10 -41,-22 -5,-5 -6,-1 -8,6 -8,28 29,42 52,23 8,-7 4,-6 -3,-7z"/>
          </g>
        </g>
      </g>
    </g> -->
    
    <g style="clip-path:url(#id4)">
      <!-- <g id="right-eye-ball">
      <path id="1" class="fill-silver-1 stroke-2" d="M701 98c-41,12 -67,50 -57,85 11,34 52,53 93,41 42,-12 67,-50 57,-85 -10,-35 -52,-53 -93,-41z"/>
      <ellipse class="fill-black stroke-2" transform="matrix(-0.368058 0.106855 0.0890381 0.30669 719.069 160.942)" rx="59" ry="60"/> -->
        
        <!-- third-stage -->
        
        <!-- <g id="right-eye-ball-shine">
          <path class="fill-white" d="M666 148c4,-7 26,-18 47,-17 -3,-6 -4,-6 4,-5 22,0 37,11 41,29 2,8 2,7 -7,5 5,13 5,54 29,10 20,-66 -74,-86 -117,-40 -9,10 -18,53 3,18z"/>
          <path class="fill-white" d="M710 200c-15,-3 -29,-10 -42,-22 -5,-5 -5,-1 -7,6 -8,28 29,42 52,23 8,-7 4,-6 -3,-7z"/>
        </g> -->

        <!-- third-stage-end -->

      <!-- </g> -->
      <!-- <g id="right-eye-final">
        <g>
          <path id="1" class="fill-silver-2 stroke-2" d="M701 130c-41,12 -66,50 -56,85 10,34 52,53 93,41 41,-12 66,-50 56,-85 -10,-34 -52,-53 -93,-41z"/>
          <ellipse class="fill-black stroke-2" transform="matrix(-0.368058 0.106855 0.0890381 0.30669 719.488 193.015)" rx="59" ry="60"/>
          <g>
          <path class="fill-white" d="M670 181c4,-8 26,-18 47,-17 -3,-6 -4,-6 4,-6 22,1 37,12 41,30 2,8 2,7 -6,5 5,13 5,54 28,10 20,-66 -74,-87 -116,-41 -10,11 -19,54 2,19z"/>
          <path class="fill-white" d="M714 233c-15,-3 -29,-10 -41,-22 -5,-5 -6,-1 -8,6 -8,28 29,42 52,23 8,-7 4,-6 -3,-7z"/>
          </g>
        </g>
      </g> -->
    </g>
    
   </g>

   <!-- second-stage-end -->


  </g>

 </g>
</svg>
