<?xml version="1.0" encoding="UTF-8"?>
<!DOCTYPE svg PUBLIC "-//W3C//DTD SVG 1.1//EN" "http://www.w3.org/Graphics/SVG/1.1/DTD/svg11.dtd">
<!-- Creator: CorelDRAW X7 -->
<svg xmlns="http://www.w3.org/2000/svg" xml:space="preserve" width="88.8481mm" height="22.253mm" version="1.1" style="shape-rendering:geometricPrecision; text-rendering:geometricPrecision; image-rendering:optimizeQuality; fill-rule:evenodd; clip-rule:evenodd"
viewBox="0 0 966 242"
 xmlns:xlink="http://www.w3.org/1999/xlink">
 <defs>
  <style type="text/css">
   <![CDATA[
    .str1 {stroke:black;stroke-width:1.84131}
    .str0 {stroke:black;stroke-width:2.17521}
    .fil3 {fill:none}
    .fil2 {fill:black}
    .fil4 {fill:#B3B3B3}
    .fil0 {fill:white}
    .fil1 {fill:url(#id2)}
    .fil5 {fill:url(#id3)}
   ]]>
  </style>
    <clipPath id="id0">
     <path d="M880 94c-1,-4 -45,129 -45,129 -87,1 -167,6 -237,18l-8 -26c100,-43 199,-112 290,-121z"/>
    </clipPath>
    <clipPath id="id1">
     <path d="M86 95c1,-5 45,129 45,129 88,0 168,6 238,17l7 -26c-100,-43 -198,-112 -290,-120z"/>
    </clipPath>
  <linearGradient id="id2" gradientUnits="userSpaceOnUse" x1="756.103" y1="104.303" x2="674.457" y2="215.885">
   <stop offset="0" style="stop-opacity:1; stop-color:#999999"/>
   <stop offset="1" style="stop-opacity:1; stop-color:#E6E6E6"/>
  </linearGradient>
  <linearGradient id="id3" gradientUnits="userSpaceOnUse" xlink:href="#id2" x1="210.212" y1="104.537" x2="291.859" y2="216.119">
  </linearGradient>
 </defs>
 <g id="Layer_x0020_1">
  <metadata id="CorelCorpID_0Corel-Layer"/>
  <g id="_2269267292656">
   <path class="fil0" d="M880 94c-1,-4 -45,129 -45,129 -87,1 -167,6 -237,18l-8 -26c100,-43 199,-112 290,-121z"/>
   <g style="clip-path:url(#id0)">
    <g>
     <g>
      <path id="1" class="fil1 str0" d="M697 97c-41,12 -66,50 -56,85 10,34 52,53 93,41 40,-12 66,-50 55,-84 -10,-35 -51,-54 -92,-42z"/>
      <circle class="fil2 str0" transform="matrix(-0.368058 0.106855 0.0890381 0.30669 715.279 160.094)" r="59"/>
      <g>
       <path class="fil0" d="M666 148c4,-7 26,-18 47,-17 -3,-6 -4,-6 4,-5 22,0 37,11 41,29 2,8 2,7 -7,5 5,13 5,54 29,10 20,-66 -74,-86 -117,-40 -9,10 -18,53 3,18z"/>
       <path class="fil0" d="M710 200c-15,-3 -29,-10 -42,-22 -5,-5 -5,-1 -7,6 -8,28 29,42 52,23 8,-7 4,-6 -3,-7z"/>
      </g>
     </g>
    </g>
   </g>
   <path class="fil3 str0" d="M880 94c-1,-4 -45,129 -45,129 -87,1 -167,6 -237,18l-8 -26c100,-43 199,-112 290,-121z"/>
   <path class="fil4 str1" d="M436 188l-2 38c-116,3 -257,-168 -432,-126l47 -99c177,27 328,214 387,187z"/>
   <path class="fil4 str1" d="M530 188l2 38c117,3 257,-168 433,-126l-48 -99c-177,26 -328,214 -387,187z"/>
   <path class="fil0" d="M86 95c1,-5 45,129 45,129 88,0 168,6 238,17l7 -26c-100,-43 -198,-112 -290,-120z"/>
   <g style="clip-path:url(#id1)">
    <g>
     <g>
      <path id="1" class="fil5 str0" d="M269 97c41,12 66,50 56,85 -10,35 -51,53 -92,41 -41,-12 -66,-50 -56,-84 10,-35 51,-53 92,-42z"/>
      <circle class="fil2 str0" transform="matrix(0.368058 0.106855 -0.0890381 0.30669 251.036 160.327)" r="59"/>
      <g>
       <path class="fil0" d="M301 148c-5,-7 -26,-17 -47,-17 2,-6 3,-5 -5,-5 -22,0 -36,11 -41,29 -2,9 -1,7 7,5 -5,13 -5,54 -29,10 -20,-66 75,-86 117,-40 10,11 18,53 -2,18z"/>
       <path class="fil0" d="M257 200c14,-2 28,-10 41,-22 5,-5 5,-1 7,6 8,28 -28,42 -51,23 -9,-7 -5,-5 3,-7z"/>
      </g>
     </g>
    </g>
   </g>
   <path class="fil3 str0" d="M86 95c1,-5 45,129 45,129 88,0 168,6 238,17l7 -26c-100,-43 -198,-112 -290,-120z"/>
  </g>
 </g>
</svg>
