<?xml version="1.0" encoding="UTF-8"?>
<!DOCTYPE svg PUBLIC "-//W3C//DTD SVG 1.1//EN" "http://www.w3.org/Graphics/SVG/1.1/DTD/svg11.dtd">
<!-- Creator: CorelDRAW X7 -->
<svg xmlns="http://www.w3.org/2000/svg" xml:space="preserve" width="89.6485mm" height="20.892mm" version="1.1" style="shape-rendering:geometricPrecision; text-rendering:geometricPrecision; image-rendering:optimizeQuality; fill-rule:evenodd; clip-rule:evenodd"
viewBox="0 0 986 230"
 xmlns:xlink="http://www.w3.org/1999/xlink">
 <defs>
  <style type="text/css">
   <![CDATA[
    .stroke-2 {stroke:black;stroke-width:2}
    .fill-none {fill:none}
    .fill-black {fill:black}
   ]]>
  </style>
 </defs>
 <g id="Layer_x0020_1">
  <metadata id="CorelCorpID_0Corel-Layer"/>
  <g id="_2268932552160">
   <g>
    <path class="fill-black stroke-2" d="M545 190l2 39c112,2 253,-171 437,-128l-48 -100c-179,27 -332,217 -391,189z"/>
    <path id="1" class="fill-black stroke-2" d="M917 149c-1,-4 -119,71 -119,71 -89,1 -99,-15 -169,-4 76,-22 117,-4 163,-14 45,-10 74,-48 125,-53z"/>
   </g>
   <g>
    <path class="fill-black stroke-2" d="M441 190l-1 39c-113,2 -254,-171 -438,-128l48 -100c179,27 332,217 391,189z"/>
    <path id="1" class="fill-black stroke-2" d="M69 149c1,-4 120,71 120,71 88,1 98,-15 169,-4 -76,-22 -117,-4 -164,-14 -45,-10 -74,-48 -125,-53z"/>
   </g>
  </g>
 </g>
</svg>
